<svg id="Layer_1" data-name="Layer 1" xmlns="http://www.w3.org/2000/svg" viewBox="0 0 491.86 491.86"><path d="M309.92,64.42H412.28L387.87,88.83a10.68,10.68,0,0,0,15.1,15.1l42.68-42.68a10.51,10.51,0,0,0,2.2-3.28h0a10.52,10.52,0,0,0,.56-1.81V56a10.91,10.91,0,0,0,0-4.26,1,1,0,0,0-.18-.66,10.78,10.78,0,0,0-.42-1.33c0-.27-.27-.55-.41-.83a10.91,10.91,0,0,0-.56-1,10.59,10.59,0,0,0-1.15-1.43v-.18h0L402.86,3.53a10.67,10.67,0,0,0-15,15.07L412.28,43H309.92a10.67,10.67,0,0,0,0,21.34Z"/><path d="M82.62,104a10.67,10.67,0,0,0,0-15.09h0L58.21,64.49H160.46a10.67,10.67,0,0,0,0-21.34H58.14L82.55,18.74a10.69,10.69,0,0,0-15-15.21h0L24.83,46.22h0v.17a10.59,10.59,0,0,0-1.15,1.43c-.2.33-.39.67-.56,1,0,.28-.31.56-.45.84A10.13,10.13,0,0,0,22.25,51a.85.85,0,0,1-.21.67,10.86,10.86,0,0,0,0,4.25v.21a11.14,11.14,0,0,0,.56,1.78h0a10.51,10.51,0,0,0,2.2,3.28L67.52,104a10.76,10.76,0,0,0,7.57,3.11A10.5,10.5,0,0,0,82.62,104Z"/><path d="M427.34,213.89a42.46,42.46,0,0,0-23.74,7.22,42.73,42.73,0,0,0-64.07-21.34,42.8,42.8,0,0,0-40.28-28.5A42.36,42.36,0,0,0,277.91,177V107.28a42.7,42.7,0,0,0-85.4,0V288.62l-37.11-27.9a55.8,55.8,0,0,0-72.78,5.17,32,32,0,0,0,0,45.32h0l152,152a95.46,95.46,0,0,0,68,28.14h50A117.55,117.55,0,0,0,470,374V256.57A42.76,42.76,0,0,0,427.34,213.89ZM448.69,374a96.19,96.19,0,0,1-96.08,96.08h-50a74.26,74.26,0,0,1-52.87-21.91l-152-152.08a10.66,10.66,0,0,1,0-15.09h0a34.58,34.58,0,0,1,44.89-3.17l54.19,40.63a10.68,10.68,0,0,0,17.09-8.55V107.14a21.34,21.34,0,1,1,42.68,0V267.25a10.68,10.68,0,0,0,21.35,0V213.89a21.34,21.34,0,0,1,42.68,0v53.36a10.67,10.67,0,0,0,21.34,0v-32a21.35,21.35,0,0,1,42.69,0v32a10.67,10.67,0,0,0,21.34,0V256.57a21.35,21.35,0,0,1,42.69,0Z"/></svg>